{
	"asset":{
		"generator":"Khronos glTF Blender I/O v4.1.63",
		"version":"2.0"
	},
	"scene":0,
	"scenes":[
		{
			"name":"Scene",
			"nodes":[
				0,
				1
			]
		}
	],
	"nodes":[
		{
			"name":"Cobotta",
			"rotation":[
				0.70710688829422,
				0,
				0,
				0.7071066498756409
			]
		},
		{
			"mesh":0,
			"name":"COBOTTA_HAND"
		}
	],
	"materials":[
		{
			"doubleSided":true,
			"name":"mat_0",
			"pbrMetallicRoughness":{
				"metallicFactor":0.5,
				"roughnessFactor":0.5
			}
		}
	],
	"meshes":[
		{
			"name":"COBOTTA_HAND",
			"primitives":[
				{
					"attributes":{
						"POSITION":0,
						"NORMAL":1
					},
					"indices":2,
					"material":0
				}
			]
		}
	],
	"accessors":[
		{
			"bufferView":0,
			"componentType":5126,
			"count":1145,
			"max":[
				0.03077271580696106,
				0.03897858038544655,
				0.02787730284035206
			],
			"min":[
				-0.030969060957431793,
				0.0002785809338092804,
				-0.027899591252207756
			],
			"type":"VEC3"
		},
		{
			"bufferView":1,
			"componentType":5126,
			"count":1145,
			"type":"VEC3"
		},
		{
			"bufferView":2,
			"componentType":5123,
			"count":4290,
			"type":"SCALAR"
		}
	],
	"bufferViews":[
		{
			"buffer":0,
			"byteLength":13740,
			"byteOffset":0,
			"target":34962
		},
		{
			"buffer":0,
			"byteLength":13740,
			"byteOffset":13740,
			"target":34962
		},
		{
			"buffer":0,
			"byteLength":8580,
			"byteOffset":27480,
			"target":34963
		}
	],
	"buffers":[
		{
			"byteLength":36060,
			"uri":"Cobotta_j5.bin"
		}
	]
}
