{
	"asset":{
		"generator":"Khronos glTF Blender I/O v4.1.63",
		"version":"2.0"
	},
	"scene":0,
	"scenes":[
		{
			"name":"Scene",
			"nodes":[
				1
			]
		}
	],
	"nodes":[
		{
			"mesh":0,
			"name":"COBOTTA_J6",
			"rotation":[
				0,
				-0.7071068286895752,
				0.7071068286895752,
				3.090862321641907e-08
			]
		},
		{
			"children":[
				0
			],
			"name":"Cobotta",
			"rotation":[
				0.70710688829422,
				0,
				0,
				0.7071066498756409
			]
		}
	],
	"materials":[
		{
			"doubleSided":true,
			"name":"mat_0",
			"pbrMetallicRoughness":{
				"metallicFactor":0.5,
				"roughnessFactor":0.5
			}
		}
	],
	"meshes":[
		{
			"name":"COBOTTA_J6",
			"primitives":[
				{
					"attributes":{
						"POSITION":0,
						"NORMAL":1
					},
					"indices":2,
					"material":0
				}
			]
		}
	],
	"accessors":[
		{
			"bufferView":0,
			"componentType":5126,
			"count":895,
			"max":[
				0.005848351866006851,
				0.040005363523960114,
				0.029043076559901237
			],
			"min":[
				-0.06196855381131172,
				-0.027244113385677338,
				-0.02947685308754444
			],
			"type":"VEC3"
		},
		{
			"bufferView":1,
			"componentType":5126,
			"count":895,
			"type":"VEC3"
		},
		{
			"bufferView":2,
			"componentType":5123,
			"count":3144,
			"type":"SCALAR"
		}
	],
	"bufferViews":[
		{
			"buffer":0,
			"byteLength":10740,
			"byteOffset":0,
			"target":34962
		},
		{
			"buffer":0,
			"byteLength":10740,
			"byteOffset":10740,
			"target":34962
		},
		{
			"buffer":0,
			"byteLength":6288,
			"byteOffset":21480,
			"target":34963
		}
	],
	"buffers":[
		{
			"byteLength":27768,
			"uri":"Cobotta_j4.bin"
		}
	]
}
