{
	"asset":{
		"generator":"Khronos glTF Blender I/O v4.1.63",
		"version":"2.0"
	},
	"scene":0,
	"scenes":[
		{
			"name":"Scene",
			"nodes":[
				1
			]
		}
	],
	"nodes":[
		{
			"mesh":0,
			"name":"COBOTTA_BASE"
		},
		{
			"children":[
				0
			],
			"name":"Cobotta",
			"rotation":[
				0.70710688829422,
				0,
				0,
				0.7071066498756409
			]
		}
	],
	"materials":[
		{
			"doubleSided":true,
			"name":"mat_0",
			"pbrMetallicRoughness":{
				"metallicFactor":0.5,
				"roughnessFactor":0.5
			}
		}
	],
	"meshes":[
		{
			"name":"COBOTTA_BASE",
			"primitives":[
				{
					"attributes":{
						"POSITION":0,
						"NORMAL":1
					},
					"indices":2,
					"material":0
				}
			]
		}
	],
	"accessors":[
		{
			"bufferView":0,
			"componentType":5126,
			"count":9691,
			"max":[
				0.0676310583949089,
				0.0658000037074089,
				7.696311036392567e-13
			],
			"min":[
				-0.0676310583949089,
				-0.2337000072002411,
				-0.1080000028014183
			],
			"type":"VEC3"
		},
		{
			"bufferView":1,
			"componentType":5126,
			"count":9691,
			"type":"VEC3"
		},
		{
			"bufferView":2,
			"componentType":5123,
			"count":28941,
			"type":"SCALAR"
		}
	],
	"bufferViews":[
		{
			"buffer":0,
			"byteLength":116292,
			"byteOffset":0,
			"target":34962
		},
		{
			"buffer":0,
			"byteLength":116292,
			"byteOffset":116292,
			"target":34962
		},
		{
			"buffer":0,
			"byteLength":57882,
			"byteOffset":232584,
			"target":34963
		}
	],
	"buffers":[
		{
			"byteLength":290468,
			"uri":"Cobotta_base.bin"
		}
	]
}
