{
	"asset":{
		"generator":"Khronos glTF Blender I/O v4.1.63",
		"version":"2.0"
	},
	"scene":0,
	"scenes":[
		{
			"name":"Scene",
			"nodes":[
				1,
				2
			]
		}
	],
	"nodes":[
		{
			"mesh":0,
			"name":"COBOTTA_2NDARM",
			"rotation":[
				0,
				0,
				1,
				4.371138828673793e-08
			]
		},
		{
			"children":[
				0
			],
			"name":"Cobotta",
			"rotation":[
				0.70710688829422,
				0,
				0,
				0.7071066498756409
			]
		},
		{
			"name":"Cobotta.001",
			"rotation":[
				0.70710688829422,
				0,
				0,
				0.7071066498756409
			]
		}
	],
	"materials":[
		{
			"doubleSided":true,
			"name":"mat_0",
			"pbrMetallicRoughness":{
				"metallicFactor":0.5,
				"roughnessFactor":0.5
			}
		}
	],
	"meshes":[
		{
			"name":"COBOTTA_2NDARM",
			"primitives":[
				{
					"attributes":{
						"POSITION":0,
						"NORMAL":1
					},
					"indices":2,
					"material":0
				}
			]
		}
	],
	"accessors":[
		{
			"bufferView":0,
			"componentType":5126,
			"count":1256,
			"max":[
				0.03085554577410221,
				0.030521133914589882,
				0.0056885480880737305
			],
			"min":[
				-0.03083133138716221,
				-0.030852636322379112,
				-0.11600230634212494
			],
			"type":"VEC3"
		},
		{
			"bufferView":1,
			"componentType":5126,
			"count":1256,
			"type":"VEC3"
		},
		{
			"bufferView":2,
			"componentType":5123,
			"count":5826,
			"type":"SCALAR"
		}
	],
	"bufferViews":[
		{
			"buffer":0,
			"byteLength":15072,
			"byteOffset":0,
			"target":34962
		},
		{
			"buffer":0,
			"byteLength":15072,
			"byteOffset":15072,
			"target":34962
		},
		{
			"buffer":0,
			"byteLength":11652,
			"byteOffset":30144,
			"target":34963
		}
	],
	"buffers":[
		{
			"byteLength":41796,
			"uri":"Cobotta_j3.bin"
		}
	]
}
