{
	"asset":{
		"generator":"Khronos glTF Blender I/O v4.1.63",
		"version":"2.0"
	},
	"scene":0,
	"scenes":[
		{
			"name":"Scene",
			"nodes":[
				1
			]
		}
	],
	"nodes":[
		{
			"mesh":0,
			"name":"COBOTTA_HAND_FINGER_1",
			"translation":[
				-0.017499998211860657,
				0,
				0.032200008630752563
			]
		},
		{
			"children":[
				0
			],
			"name":"COBOTTA_HAND_FINGER_ASM",
			"rotation":[
				0.70710688829422,
				0,
				0,
				0.7071066498756409
			],
			"translation":[
				0.017500000074505806,
				0.032200008630752563,
				0
			]
		}
	],
	"materials":[
		{
			"doubleSided":true,
			"name":"mat_0",
			"pbrMetallicRoughness":{
				"metallicFactor":0.5,
				"roughnessFactor":0.5
			}
		}
	],
	"meshes":[
		{
			"name":"COBOTTA_HAND_FINGER_1",
			"primitives":[
				{
					"attributes":{
						"POSITION":0,
						"NORMAL":1
					},
					"indices":2,
					"material":0
				}
			]
		}
	],
	"accessors":[
		{
			"bufferView":0,
			"componentType":5126,
			"count":1315,
			"max":[
				0.01397964172065258,
				0.015392422676086426,
				0.005922166630625725
			],
			"min":[
				5.611078813672066e-05,
				-0.015506291761994362,
				-0.02437783218920231
			],
			"type":"VEC3"
		},
		{
			"bufferView":1,
			"componentType":5126,
			"count":1315,
			"type":"VEC3"
		},
		{
			"bufferView":2,
			"componentType":5123,
			"count":4494,
			"type":"SCALAR"
		}
	],
	"bufferViews":[
		{
			"buffer":0,
			"byteLength":15780,
			"byteOffset":0,
			"target":34962
		},
		{
			"buffer":0,
			"byteLength":15780,
			"byteOffset":15780,
			"target":34962
		},
		{
			"buffer":0,
			"byteLength":8988,
			"byteOffset":31560,
			"target":34963
		}
	],
	"buffers":[
		{
			"byteLength":40548,
			"uri":"Cobotta_j6_1.bin"
		}
	]
}
